<svg id="Capa_1" data-name="Capa 1" xmlns="http://www.w3.org/2000/svg" viewBox="0 0 220 60"><defs><style>.cls-1{fill:#50285a;}</style></defs><title>Ersilia_Brand</title><path class="cls-1" d="M108.52,48.44a28.48,28.48,0,0,1-3.32,5.79c-1.52,2-2.26,2.55-6.11,2.55H92.78c-3.45-.05-5-.38-5-5v-14H95.4c4.65,0,5.17.67,6.11,5.44h1.75V29.82h-1.75c-.8,4.52-1.21,5.49-6.09,5.49H87.77v-15c0-1.91.14-2.11,2.14-2.11H96.5c4,0,5.33.37,6.45,2.49a23.29,23.29,0,0,1,2,5.13l1.72-.28c-.25-3.11-.52-8.07-.57-9.92-.92.09-3.37.14-9.5.14h-20v1.58c5.06.61,5.65,1,5.65,6.85V51c0,5.47-.45,6-6.57,6.59V59.2h31.88c.63-2,2.28-8.46,2.66-10.32Z"/><path class="cls-1" d="M127.84,29.46c-3.27,0-6.23,3.79-8.37,7.09,0-2.28,0-5.37,0-7.31a35.11,35.11,0,0,1-9,2.76v1.4c3.74.55,3.94.81,3.94,5.18V52.34c0,4.49-.37,4.82-4.48,5.27V59.2h14.89V57.61c-5-.49-5.38-.82-5.38-5.32V39.55c1.54-3.39,3.9-5.3,5.28-5.3,1.21,0,2,.67,3,1.67a1.27,1.27,0,0,0,1.68.1,4.35,4.35,0,0,0,2.11-3.52C131.55,30.94,130.17,29.46,127.84,29.46Z"/><path class="cls-1" d="M142.22,41.87c-3.59-1.71-5.64-3.07-5.64-6a4.07,4.07,0,0,1,4.21-4.39c3.81,0,5.76,2.4,7,6.49l1.65-.41c-.28-1.46-.78-5.72-1-7.24a35.85,35.85,0,0,0-6.19-.81c-6,0-10.1,3.68-10.08,8.43s3.73,6.82,8.2,9.08c3.46,1.75,5.3,3.32,5.3,6.38A4.48,4.48,0,0,1,140.94,58c-4.61,0-7-3.42-8.16-7.59l-1.64.3c.25,2.06.91,5.9,1.24,7.6A17.55,17.55,0,0,0,139.94,60c5.18,0,10.58-3.19,10.58-9.14C150.52,46.54,147.68,44.5,142.22,41.87Z"/><path class="cls-1" d="M157.62,26.11a3.36,3.36,0,0,0,3.32-3.34,3.3,3.3,0,0,0-3.25-3.46,3.41,3.41,0,0,0-3.41,3.46A3.45,3.45,0,0,0,157.62,26.11Z"/><path class="cls-1" d="M186.59,26.11a3.35,3.35,0,0,0,3.31-3.34,3.29,3.29,0,0,0-3.24-3.46,3.41,3.41,0,0,0-3.41,3.46A3.45,3.45,0,0,0,186.59,26.11Z"/><path class="cls-1" d="M219.4,55.06a4.54,4.54,0,0,1-2.31.71c-1.22,0-2.34-1-2.34-4.07V39.06c0-3.6-1-5.85-3.26-7.85a9,9,0,0,0-5.41-1.75c-3.53.75-7.61,3.27-9.49,4.65-1.29.92-2.05,1.65-2.05,2.48a3,3,0,0,0,2.78,2.78A1.73,1.73,0,0,0,199.08,38a13.77,13.77,0,0,1,1.8-4.31A3.88,3.88,0,0,1,204,32.2c3.51,0,5.9,2.85,5.9,7.61v1.51c-1.54,1.2-6.48,2.87-10.43,4.24-3.53,1.21-5.28,3.26-5.28,6.46a8,8,0,0,0,7.94,8c1.92,0,5.25-2.51,7.85-4.29a5.86,5.86,0,0,0,1.57,3,4.73,4.73,0,0,0,3.1,1.29L220,56.66Zm-9.58-1.31a8.36,8.36,0,0,1-5.4,2.37,4.85,4.85,0,0,1-4.83-5.1c0-2.46,1.56-3.72,4-4.82,1.6-.73,4.88-2.11,6.26-2.84C209.86,46.58,209.82,50.6,209.82,53.75Z"/><path class="cls-1" d="M169.89,52.28c0,4.51-2.55,5.33-4.7,5.33s-4.7-.82-4.7-5.33V37.7c0-2.86,0-6,0-8.38A41.8,41.8,0,0,1,151.36,32v1.35c3.88.67,4.1,1,4.1,5.2V52.2c0,4.61-.41,4.94-4.6,5.41V59.2h43.29V57.61c-4.25-.47-4.7-.78-4.7-5.43V37.7c0-2.86,0-6,0-8.38A41.8,41.8,0,0,1,180.33,32v1.35c3.88.67,4.1,1,4.1,5.2V52.28c0,4.51-2.59,5.33-4.77,5.33s-4.76-.82-4.76-5.33V24.43c0-3.5,0-6.67,0-9.43a42.5,42.5,0,0,1-9.58,2.27v1.49c4.18.55,4.52.95,4.52,5.36Z"/><path class="cls-1" d="M59.84,33.87c.07-.52.12-1,.16-1.57l-8,8L41.71,30,52,19.7l8,8c0-.53-.09-1.05-.16-1.58L52.71,19l3.6-3.61c-.16-.3-.33-.6-.51-.89L52,18.29,41.71,8,45.5,4.2q-.44-.27-.9-.51L41,7.29,33.88.16C33.35.09,32.83,0,32.3,0l8,8L30,18.29,19.71,8l8-8c-.53,0-1.05.09-1.58.16L19,7.29l-3.6-3.6q-.47.24-.9.51L18.29,8,8,18.29,4.2,14.5c-.18.29-.35.59-.51.89L7.29,19,.16,26.12C.09,26.65,0,27.17,0,27.7l8-8L18.29,30,8,40.29l-8-8c0,.53.09,1.05.16,1.57L7.29,41l-3.6,3.6q.24.46.51.9L8,41.71,18.29,52,14.5,55.8c.29.18.59.35.89.51L19,52.71l7.13,7.13c.52.07,1,.12,1.57.16l-8-8L30,41.71,40.3,52l-8,8c.53,0,1.05-.09,1.57-.16L41,52.71l3.61,3.6c.3-.16.6-.33.89-.51L41.71,52,52,41.71,55.8,45.5q.27-.44.51-.9L52.71,41ZM41,8.7,51.3,19,41,29.29,30.71,19ZM40.3,30,30,40.29,19.71,30,30,19.7ZM8.7,19,19,8.7,29.29,19,19,29.29ZM19,51.3,8.7,41,19,30.71,29.29,41Zm22,0L30.71,41,41,30.71,51.3,41Z"/></svg>