<?xml version="1.0" encoding="utf-8"?>
<!-- Generator: Adobe Illustrator 24.0.2, SVG Export Plug-In . SVG Version: 6.00 Build 0)  -->
<svg version="1.1" id="Capa_1" xmlns="http://www.w3.org/2000/svg" xmlns:xlink="http://www.w3.org/1999/xlink" x="0px" y="0px"
	 viewBox="0 0 958 832.99" style="enable-background:new 0 0 958 832.99;" xml:space="preserve">
<style type="text/css">
	.st0{fill:#00A672;}
</style>
<g>
	<path class="st0" d="M666.4,379.65v-1.5h-36.56v-36.44l27.9-27.9l-1.07-1.07l-27.59,27.59l-36.44-36.44l27.6-27.6l-1.07-1.07
		l-27.6,27.6l-36.44-36.44l27.6-27.6l-1.07-1.07l-27.9,27.9h-36.45v-36.54h-1.5v36.56H461.1v-36.56h-1.5v36.56h-18.32l-18.44,18.44
		l-27.6-27.59l-1.05,1.05l27.6,27.6l-36.45,36.44L357.75,294l-1.05,1.05l27.6,27.6l-36.45,36.44l-27.6-27.59l-1.05,1.05l27.6,27.6
		l-18.45,18.44v18.32H291.6v1.5h36.75v54.75H291.6v1.5h36.75v54.75H291.6v1.5h36.75v18.32l18.44,18.44l-27.6,27.6l1.07,1.07
		l27.6-27.6l18.44,18.44h18.32v36.75h1.5v-36.75h18.32l18.44-18.44l27.6,27.6l1.07-1.07l-27.6-27.6l36.44-36.44l27.6,27.6l1.07-1.07
		l-27.6-27.6l18-18h36.44v36.56h1.5v-36.56h36.24l28.11,27.9l1.05-1.07l-27.69-27.5l36.54-36.53l27.6,27.6l1.07-1.07l-27.6-27.6
		l36.44-36.44l27.6,27.6l1.07-1.07l-27.9-27.9v-36.45C629.86,379.65,666.4,379.65,666.4,379.65z M628.35,416.08l-74.57,74.57h-75
		l-75,75h-36.87l-37.07-37.07V379.2l112.07-112.07H553.8l74.57,74.57L628.35,416.08L628.35,416.08z"/>
</g>
</svg>
