<?xml version="1.0" encoding="utf-8"?>
<!-- Generator: Adobe Illustrator 24.0.2, SVG Export Plug-In . SVG Version: 6.00 Build 0)  -->
<svg version="1.1" id="Layer_1" xmlns="http://www.w3.org/2000/svg" xmlns:xlink="http://www.w3.org/1999/xlink" x="0px" y="0px"
	 viewBox="0 0 395.51 107.86" style="enable-background:new 0 0 395.51 107.86;" xml:space="preserve">
<style type="text/css">
	.st0{fill:#50285a;}
</style>
<g>
	<g>
		<g>
			<path class="st0" d="M195.09,87.08c-1.58,3.47-3.82,7.85-5.97,10.4c-2.74,3.51-4.07,4.59-10.97,4.59h-11.36
				c-6.19-0.09-8.99-0.68-8.99-8.99v-25.1h13.72c8.35,0,9.28,1.2,10.97,9.78h3.14V53.61h-3.14c-1.44,8.13-2.17,9.87-10.95,9.87
				H157.8V36.59c0-3.45,0.24-3.81,3.83-3.81h11.85c7.17,0,9.58,0.68,11.6,4.48c1.29,2.39,2.62,5.39,3.63,9.22l3.09-0.5
				c-0.45-5.59-0.93-14.5-1.02-17.82c-1.67,0.15-6.06,0.24-17.09,0.24h-36v2.85c9.1,1.1,10.16,1.73,10.16,12.32v48.15
				c0,9.84-0.81,10.86-11.81,11.86v2.85h57.32c1.14-3.6,4.09-15.2,4.78-18.54L195.09,87.08z"/>
			<path class="st0" d="M229.82,52.96c-5.87,0-11.2,6.82-15.05,12.75c0.06-4.09,0.06-9.66,0.1-13.14
				c-5.35,2.49-10.47,3.96-16.22,4.95v2.52c6.74,1,7.09,1.46,7.09,9.32V94.1c0,8.06-0.66,8.66-8.06,9.48v2.85h26.78v-2.85
				c-9.08-0.88-9.68-1.48-9.68-9.56V71.09c2.77-6.09,7.02-9.52,9.51-9.52c2.16,0,3.6,1.2,5.4,3c0.86,0.78,1.82,0.93,3.02,0.18
				c2.03-1.2,3.79-3.71,3.79-6.31C236.5,55.62,234.01,52.96,229.82,52.96z"/>
			<path class="st0" d="M255.68,75.28c-6.47-3.09-10.14-5.52-10.14-10.88c0-4.83,3.11-7.9,7.57-7.9c6.84,0,10.35,4.32,12.51,11.67
				l2.97-0.74c-0.5-2.63-1.41-10.28-1.71-13.01c-2.27-0.3-6.19-1.46-11.14-1.46c-10.87,0-18.15,6.63-18.12,15.16
				c0.03,8.48,6.71,12.26,14.73,16.31c6.23,3.15,9.54,5.98,9.54,11.48c0,5.11-3.71,8.32-8.53,8.32c-8.28,0-12.57-6.15-14.67-13.64
				l-2.94,0.54c0.45,3.7,1.62,10.6,2.22,13.66c2.39,1.28,7.69,3.07,13.58,3.07c9.32,0,19.02-5.74,19.02-16.43
				C270.59,83.67,265.49,80.01,255.68,75.28z"/>
			<path class="st0" d="M283.37,46.94c3.32,0,5.95-2.81,5.95-6.01c0-3.65-2.63-6.22-5.83-6.22c-3.26,0-6.13,2.57-6.13,6.22
				C277.36,44.13,280.23,46.94,283.37,46.94z"/>
			<path class="st0" d="M335.45,46.94c3.32,0,5.95-2.81,5.95-6.01c0-3.65-2.63-6.22-5.83-6.22c-3.26,0-6.13,2.57-6.13,6.22
				C329.44,44.13,332.31,46.94,335.45,46.94z"/>
			<path class="st0" d="M394.43,98.98c-1.26,0.75-2.69,1.29-4.16,1.29c-2.19,0-4.2-1.74-4.2-7.33V70.22
				c0-6.47-1.73-10.51-5.87-14.12c-2.63-2.06-6.26-3.14-9.73-3.14c-6.33,1.34-13.68,5.88-17.06,8.37c-2.31,1.65-3.67,2.96-3.67,4.45
				c0,2.75,2.87,4.99,4.99,4.99c1.45,0,2.59-0.68,3.16-2.54c1.02-3.32,1.92-6.12,3.24-7.74c1.23-1.44,2.94-2.6,5.54-2.6
				c6.31,0,10.6,5.11,10.6,13.67v2.72c-2.77,2.16-11.64,5.15-18.74,7.61c-6.35,2.18-9.49,5.87-9.49,11.62
				c0,7.33,5.87,14.35,14.26,14.35c3.46,0,9.44-4.51,14.12-7.72c0.57,2.35,1.35,3.91,2.82,5.4c1.36,1.42,3.81,2.31,5.58,2.31l9.69-6
				L394.43,98.98z M377.21,96.64c-2.43,2.53-6.66,4.26-9.71,4.26c-3.94,0-8.67-2.95-8.67-9.18c0-4.41,2.79-6.69,7.19-8.67
				c2.89-1.3,8.78-3.79,11.26-5.11C377.28,83.74,377.21,90.96,377.21,96.64z"/>
		</g>
		<path class="st0" d="M305.42,93.98c0,8.12-4.59,9.59-8.45,9.59s-8.45-1.48-8.45-9.59v-26.2c0-5.14,0.03-10.72,0.07-15.06
			c-5.07,2.19-10.61,3.72-16.47,4.77v2.43c6.98,1.2,7.37,1.71,7.37,9.35v24.57c0,8.29-0.74,8.89-8.27,9.74v2.85h77.84v-2.85
			c-7.64-0.85-8.45-1.42-8.45-9.77V67.78c0-5.14,0.03-10.72,0.06-15.06c-5.07,2.19-10.61,3.72-16.47,4.77v2.43
			c6.98,1.2,7.37,1.71,7.37,9.35v24.71c0,8.12-4.65,9.59-8.57,9.59c-3.92,0-8.57-1.48-8.57-9.59V43.91c0-6.28,0.06-11.98,0.1-16.95
			c-3.65,1.47-11.09,3.42-17.22,4.08v2.67c7.52,0.99,8.12,1.71,8.12,9.64V93.98z"/>
	</g>
	<path class="st0" d="M107.58,60.9c0.12-0.94,0.22-1.88,0.29-2.83L93.49,72.44L74.98,53.93l18.51-18.51l14.37,14.37
		c-0.07-0.95-0.17-1.89-0.29-2.83L94.76,34.15l6.48-6.48c-0.3-0.54-0.61-1.08-0.93-1.61l-6.82,6.82L74.98,14.37l6.82-6.82
		c-0.53-0.32-1.07-0.63-1.61-0.93l-6.48,6.48L60.9,0.29C59.96,0.17,59.02,0.07,58.07,0l14.37,14.37L53.93,32.88L35.42,14.37L49.8,0
		c-0.95,0.07-1.89,0.17-2.83,0.29L34.15,13.1l-6.48-6.48c-0.54,0.3-1.08,0.61-1.61,0.93l6.82,6.82L14.37,32.88l-6.82-6.82
		c-0.32,0.53-0.63,1.07-0.93,1.61l6.48,6.48L0.29,46.96C0.17,47.9,0.07,48.85,0,49.8l14.37-14.37l18.51,18.51L14.37,72.44L0,58.07
		c0.07,0.95,0.17,1.89,0.29,2.83L13.1,73.71l-6.48,6.48c0.3,0.54,0.61,1.08,0.93,1.61l6.82-6.82l18.51,18.51l-6.82,6.82
		c0.53,0.32,1.07,0.63,1.61,0.93l6.48-6.48l12.81,12.81c0.94,0.12,1.88,0.22,2.83,0.29L35.42,93.49l18.51-18.51l18.51,18.51
		l-14.37,14.37c0.95-0.07,1.89-0.17,2.83-0.29l12.81-12.81l6.48,6.48c0.54-0.3,1.08-0.61,1.61-0.93l-6.82-6.82l18.51-18.51
		l6.82,6.82c0.32-0.53,0.63-1.07,0.93-1.61l-6.48-6.48L107.58,60.9z M73.71,15.64l18.51,18.51L73.71,52.66L55.2,34.15L73.71,15.64z
		 M72.44,53.93L53.93,72.44L35.42,53.93l18.51-18.51L72.44,53.93z M15.65,34.15l18.51-18.51l18.51,18.51L34.15,52.66L15.65,34.15z
		 M34.15,92.22L15.65,73.71L34.15,55.2l18.51,18.51L34.15,92.22z M73.71,92.22L55.2,73.71L73.71,55.2l18.51,18.51L73.71,92.22z"/>
</g>
</svg>
