<?xml version="1.0" encoding="utf-8"?>
<!-- Generator: Adobe Illustrator 24.0.2, SVG Export Plug-In . SVG Version: 6.00 Build 0)  -->
<svg version="1.1" id="Capa_1" xmlns="http://www.w3.org/2000/svg" xmlns:xlink="http://www.w3.org/1999/xlink" x="0px" y="0px"
	 viewBox="0 0 958 832.99" style="enable-background:new 0 0 958 832.99;" xml:space="preserve">
<style type="text/css">
	.st0{fill:#00A672;}
</style>
<g>
	<g>
		<path class="st0" d="M328.23,574.56l11.43,11.43h16.16l11.43-11.43V558.4l-11.45-11.42h-16.14l-11.43,11.43
			C328.23,558.42,328.23,574.56,328.23,574.56z M329.73,559.03l10.55-10.55h14.91l10.55,10.55v14.91l-10.55,10.54h-14.91
			l-10.55-10.54C329.73,573.94,329.73,559.03,329.73,559.03z"/>
		<path class="st0" d="M637.05,546.99h-7.32V471.1l-55.35-55.37h-38.4V283.6l-55.35-55.37h-78.3l-55.35,55.37v244.64h-15.09
			l-22.41,22.41v31.7l22.41,22.41h31.68l22.41-22.43v-31.7l-22.41-22.4h-15.09V284.22l54.48-54.48H480l54.48,54.48v131.52h-38.4
			l-55.35,55.37v75.89h-7.32l-11.43,11.43v16.16L433.41,586h16.16L461,574.57v-16.16l-11.43-11.43h-7.32v-75.27l54.48-54.48h77.04
			l54.48,54.48v75.27h-7.32l-11.43,11.43v16.16L620.93,586h16.16l11.43-11.43v-16.16L637.05,546.99z M384.48,551.26v30.45
			l-21.53,21.53h-30.45l-21.53-21.53v-30.45l21.53-21.53h30.45L384.48,551.26z M459.48,559.03v14.91l-10.55,10.54h-14.91
			l-10.55-10.54v-14.91l10.55-10.55h14.91L459.48,559.03z M646.98,573.94l-10.55,10.54h-14.91l-10.54-10.54v-14.91l10.54-10.55
			h14.91l10.55,10.55V573.94z"/>
	</g>
</g>
</svg>
