<?xml version="1.0" encoding="utf-8"?>
<!-- Generator: Adobe Illustrator 23.0.5, SVG Export Plug-In . SVG Version: 6.00 Build 0)  -->
<svg version="1.1" id="Capa_1" xmlns="http://www.w3.org/2000/svg" xmlns:xlink="http://www.w3.org/1999/xlink" x="0px" y="0px"
	 viewBox="0 0 226 251.01" style="enable-background:new 0 0 226 251.01;" xml:space="preserve">
<g>
	<g>
		<path d="M73.57,201.01h53.86l46.53-26.86l0.12-0.07l26.86-46.53l0.07-0.12V73.58l-26.86-46.53l-0.07-0.12L127.55,0.07L127.43,0
			H73.57L27.04,26.87l-0.12,0.07L0.07,73.46L0,73.58v53.86l26.86,46.53l0.07,0.12l46.53,26.86L73.57,201.01z M1,127.17V73.85
			l26.66-46.18L73.84,1.01h53.32l46.18,26.66L200,73.85v53.32l-26.66,46.18l-46.18,26.66H73.84l-46.18-26.66L1,127.17z"/>
		<polygon points="192.44,8.75 191.57,9.25 225,67.15 225,133.87 191.64,191.65 133.86,225.01 100,225.01 100,250.01 50.5,250.01 
			50.5,251.01 150.5,251.01 150.5,250.01 101,250.01 101,226.01 134.13,226.01 192.26,192.45 192.37,192.38 225.93,134.25 
			226,134.14 226,66.88 		"/>
	</g>
</g>
</svg>
