<?xml version="1.0" encoding="utf-8"?>
<!-- Generator: Adobe Illustrator 23.0.5, SVG Export Plug-In . SVG Version: 6.00 Build 0)  -->
<svg version="1.1" id="Capa_1" xmlns="http://www.w3.org/2000/svg" xmlns:xlink="http://www.w3.org/1999/xlink" x="0px" y="0px"
	 viewBox="0 0 251.04 251.03" style="enable-background:new 0 0 251.04 251.03;" xml:space="preserve">
<g>
	<path d="M242,33.74l-24.7-24.7l-33.62-9.01L183.55,0l-33.62,9.01l-0.13,0.04L9.04,149.79L0,183.54l9.04,33.75l24.7,24.7L67.36,251
		l0.13,0.03l33.62-9.01l0.13-0.04L242,101.22l9.04-33.75L242,33.74z M100.72,241.09l-33.23,8.9l-33.23-8.9L9.94,216.77l-8.9-33.23
		l8.9-33.23L75.55,84.7l33.23-8.9l33.23,8.9l24.32,24.32l8.9,33.23l-8.9,33.23L100.72,241.09z M241.1,100.71l-73.36,73.36
		l8.52-31.81l-9.04-33.75l-24.7-24.7L108.9,74.8l-0.13-0.03l-31.81,8.52l73.36-73.36l33.23-8.9l33.23,8.9l24.32,24.32l8.9,33.23
		L241.1,100.71z"/>
</g>
</svg>
