<?xml version="1.0" encoding="utf-8"?>
<!-- Generator: Adobe Illustrator 24.0.2, SVG Export Plug-In . SVG Version: 6.00 Build 0)  -->
<svg version="1.1" id="Capa_1" xmlns="http://www.w3.org/2000/svg" xmlns:xlink="http://www.w3.org/1999/xlink" x="0px" y="0px"
	 viewBox="0 0 958 832.99" style="enable-background:new 0 0 958 832.99;" xml:space="preserve">
<style type="text/css">
	.st0{fill:#bee6b4;}
</style>
<g>
	<path class="st0" d="M653.72,278.83l-37.05-37.05l-50.43-13.51l-0.2-0.04l-50.43,13.51l-0.2,0.06L304.28,452.91l-13.56,50.62
		l13.56,50.62l37.05,37.05l50.43,13.51l0.2,0.05l50.43-13.51l0.19-0.06l211.14-211.14l13.56-50.62L653.72,278.83z M441.8,589.86
		l-49.84,13.35l-49.84-13.35l-36.48-36.48l-13.35-49.84l13.35-49.84l98.41-98.41l49.84-13.35l49.84,13.35l36.48,36.48l13.35,49.84
		l-13.35,49.84L441.8,589.86z M652.37,379.29L542.33,489.33l12.78-47.71l-13.56-50.62l-37.05-37.05l-50.43-13.51l-0.19-0.05
		l-47.71,12.78L516.2,243.12l49.84-13.35l49.84,13.35l36.48,36.48l13.35,49.84L652.37,379.29z"/>
</g>
</svg>
