<?xml version="1.0" encoding="utf-8"?>
<!-- Generator: Adobe Illustrator 23.0.5, SVG Export Plug-In . SVG Version: 6.00 Build 0)  -->
<svg version="1.1" id="Capa_1" xmlns="http://www.w3.org/2000/svg" xmlns:xlink="http://www.w3.org/1999/xlink" x="0px" y="0px"
	 viewBox="0 0 226.02 251.01" style="enable-background:new 0 0 226.02 251.01;" xml:space="preserve">
<g>
	<g>
		<path d="M12.5,230.88l7.62,7.62h10.77l7.62-7.62v-10.77l-7.63-7.61H20.12l-7.62,7.62V230.88z M13.5,220.53l7.03-7.03h9.94
			l7.03,7.03v9.94l-7.03,7.03h-9.94l-7.03-7.03C13.5,230.47,13.5,220.53,13.5,220.53z"/>
		<path d="M218.38,212.5h-4.88v-50.59L176.6,125H151V36.91L114.1,0H61.9L25,36.91V200H14.94L0,214.94v21.13l14.94,14.94h21.12
			L51,236.06v-21.13L36.06,200H26V37.32L62.32,1h51.36L150,37.32V125h-25.6l-36.9,36.91v50.59h-4.88L75,220.12v10.77l7.62,7.62
			h10.77l7.62-7.62v-10.77l-7.62-7.62h-4.88v-50.18L124.83,126h51.36l36.32,36.32v50.18h-4.88l-7.62,7.62v10.77l7.62,7.62h10.77
			l7.62-7.62v-10.77L218.38,212.5z M50,215.35v20.3L35.65,250h-20.3L1,235.65v-20.3L15.35,201h20.3L50,215.35z M100,220.53v9.94
			l-7.03,7.03h-9.94L76,230.47v-9.94l7.03-7.03h9.94L100,220.53z M225,230.47l-7.03,7.03h-9.94l-7.03-7.03v-9.94l7.03-7.03h9.94
			l7.03,7.03V230.47z"/>
	</g>
</g>
</svg>
