<?xml version="1.0" encoding="utf-8"?>
<!-- Generator: Adobe Illustrator 23.0.5, SVG Export Plug-In . SVG Version: 6.00 Build 0)  -->
<svg version="1.1" id="Capa_1" xmlns="http://www.w3.org/2000/svg" xmlns:xlink="http://www.w3.org/1999/xlink" x="0px" y="0px"
	 viewBox="0 0 249.87 249.87" style="enable-background:new 0 0 249.87 249.87;" xml:space="preserve">
<g>
	<path d="M249.87,100.37v-1H225.5V75.08l18.6-18.6l-0.71-0.71L225,74.16l-24.29-24.29l18.4-18.4l-0.71-0.71L200,49.16l-24.29-24.29
		l18.4-18.4l-0.71-0.71l-18.6,18.6h-24.3V0h-1v24.37H113V0h-1v24.37H99.79L87.5,36.66L69.1,18.27l-0.7,0.7l18.4,18.4L62.5,61.66
		L44.1,43.27l-0.7,0.7l18.4,18.4L37.5,86.66L19.1,68.27l-0.7,0.7l18.4,18.4L24.5,99.66v12.21H0v1h24.5v36.5H0v1h24.5v36.5H0v1h24.5
		v12.21l12.29,12.29l-18.4,18.4l0.71,0.71l18.4-18.4l12.29,12.29H62v24.5h1v-24.5h12.21l12.29-12.29l18.4,18.4l0.71-0.71l-18.4-18.4
		l24.29-24.29l18.4,18.4l0.71-0.71l-18.4-18.4l12-12h24.29v24.37h1v-24.37h24.16l18.74,18.6l0.7-0.71l-18.46-18.33L200,150.58
		l18.4,18.4l0.71-0.71l-18.4-18.4L225,125.58l18.4,18.4l0.71-0.71l-18.6-18.6v-24.3H249.87z M224.5,124.66l-49.71,49.71h-50l-50,50
		H50.21L25.5,199.66v-99.59l74.71-74.71h74.59l49.71,49.71L224.5,124.66L224.5,124.66z"/>
</g>
</svg>
