<?xml version="1.0" encoding="utf-8"?>
<!-- Generator: Adobe Illustrator 24.0.2, SVG Export Plug-In . SVG Version: 6.00 Build 0)  -->
<svg version="1.1" id="Capa_1" xmlns="http://www.w3.org/2000/svg" xmlns:xlink="http://www.w3.org/1999/xlink" x="0px" y="0px"
	 viewBox="0 0 958 832.99" style="enable-background:new 0 0 958 832.99;" xml:space="preserve">
<style type="text/css">
	.st0{fill:#bee6b4;}
</style>
<g>
	<g>
		<path class="st0" d="M418.85,530.15h80.79l69.8-40.29l0.18-0.11l40.29-69.8l0.11-0.18V339l-40.29-69.8l-0.1-0.18l-69.8-40.29
			l-0.18-0.1h-80.79l-69.8,40.31l-0.18,0.11l-40.28,69.78l-0.1,0.18v80.79l40.29,69.8l0.11,0.18l69.8,40.29L418.85,530.15z
			 M310,419.39v-79.98l39.99-69.27l69.27-39.99h79.98l69.27,39.99l39.99,69.27v79.98l-39.99,69.27l-69.27,39.99h-79.98l-69.27-39.99
			L310,419.39z"/>
		<polygon class="st0" points="597.16,241.76 595.86,242.51 646,329.36 646,429.44 595.96,516.11 509.29,566.15 458.5,566.15 
			458.5,603.65 384.25,603.65 384.25,605.15 534.25,605.15 534.25,603.65 460,603.65 460,567.65 509.7,567.65 596.89,517.31 
			597.06,517.2 647.4,430.01 647.5,429.84 647.5,328.95 		"/>
	</g>
</g>
</svg>
