<?xml version="1.0" encoding="utf-8"?>
<!-- Generator: Adobe Illustrator 24.0.2, SVG Export Plug-In . SVG Version: 6.00 Build 0)  -->
<svg version="1.1"
	 id="svg8" xmlns:cc="http://creativecommons.org/ns#" xmlns:dc="http://purl.org/dc/elements/1.1/" xmlns:inkscape="http://www.inkscape.org/namespaces/inkscape" xmlns:rdf="http://www.w3.org/1999/02/22-rdf-syntax-ns#" xmlns:sodipodi="http://sodipodi.sourceforge.net/DTD/sodipodi-0.dtd" xmlns:svg="http://www.w3.org/2000/svg"
	 xmlns="http://www.w3.org/2000/svg" xmlns:xlink="http://www.w3.org/1999/xlink" x="0px" y="0px" viewBox="0 0 512 128"
	 style="enable-background:new 0 0 512 128;" xml:space="preserve">
<style type="text/css">
	.st0{fill:#bee6b4;}
	.st1{fill:#bee6b4;}
</style>
<g id="layer1" transform="translate(-14.597729,-29.639787)">
	<g id="text835" transform="matrix(1.0394874,0,0,1.0394874,-17.466174,-1.6263272)">
		<path id="path897" class="st0" d="M68.7,47.1H41.8v20.6h23.4V76H41.8V105h-9.5V38.7h36.4V47.1z"/>
		<path id="path899" class="st0" d="M111,105.9c-6.3,0-11.9-1.3-16.9-4c-5-2.7-8.9-6.7-11.9-11.9c-2.9-5.2-4.4-11.3-4.4-18.1
			c0-5.2,0.8-9.9,2.5-14.2c1.7-4.3,4-7.9,7-10.8c3-2.9,6.5-5.1,10.5-6.7c4.1-1.6,8.4-2.4,13.1-2.4c4.7,0,9,0.8,13,2.4
			c4.1,1.6,7.6,3.8,10.5,6.7c3,2.9,5.3,6.5,7,10.8c1.7,4.3,2.6,9,2.6,14.2c0,5.2-0.9,9.9-2.6,14.3c-1.7,4.3-4,7.9-7,10.7
			c-2.9,2.9-6.4,5.1-10.5,6.7C120,105.1,115.7,105.9,111,105.9L111,105.9z M111,97.1c3.3,0,6.4-0.6,9.3-1.7c2.9-1.2,5.4-2.8,7.5-4.9
			c2.2-2.1,3.8-4.8,5.1-8c1.2-3.2,1.9-6.8,1.9-10.7c0-3.9-0.6-7.5-1.9-10.6c-1.2-3.2-2.9-5.9-5.1-8c-2.1-2.1-4.6-3.7-7.5-4.8
			c-2.9-1.2-6-1.7-9.3-1.7c-3.3,0-6.5,0.6-9.4,1.7c-2.9,1.1-5.4,2.7-7.5,4.8c-2.2,2.1-3.9,4.8-5.1,8c-1.2,3.2-1.8,6.7-1.8,10.6
			c0,3.9,0.6,7.5,1.8,10.7c1.3,3.2,3,5.9,5.1,8c2.2,2.1,4.7,3.7,7.5,4.9C104.5,96.5,107.7,97.1,111,97.1z"/>
		<path id="path901" class="st0" d="M179.5,105.9c-7,0-12.8-1.6-17.5-4.7s-7.6-7.5-8.7-13.1l9.5-2.2c0.7,3.8,2.7,6.8,5.7,9
			c3.1,2.2,6.8,3.2,11.3,3.2c1.8,0,3.6-0.2,5.2-0.6c1.6-0.4,3-1,4.4-1.8c1.3-0.8,2.4-2,3.1-3.4c0.7-1.5,1.1-3.2,1.1-5.1
			c0-1.5-0.4-2.8-1.2-4c-0.7-1.2-1.4-2.2-2.2-2.9c-0.7-0.7-2.1-1.5-4.1-2.3c-2-0.8-3.4-1.4-4.3-1.6c-0.8-0.3-2.6-0.8-5.3-1.5
			c-0.3-0.1-0.5-0.2-0.6-0.2c-1.8-0.5-3.2-0.9-4.4-1.3s-2.5-0.8-4.1-1.4c-1.6-0.6-2.9-1.2-3.9-1.8c-1-0.6-2.1-1.4-3.2-2.3
			c-1.1-0.9-2-1.9-2.7-3c-0.6-1.1-1.2-2.3-1.6-3.8c-0.4-1.5-0.6-3-0.6-4.7c0-2.4,0.4-4.6,1.1-6.7c0.8-2,1.8-3.8,3.2-5.2
			c1.4-1.4,3-2.7,4.9-3.7c1.9-1,3.9-1.8,6.1-2.3c2.2-0.5,4.5-0.7,6.9-0.7c3,0,5.8,0.3,8.4,1c2.7,0.6,5.1,1.6,7.3,2.9
			c2.2,1.3,4.1,3,5.7,5.1c1.6,2.1,2.6,4.5,3.2,7.3l-9,2.3c-0.8-3.5-2.5-6.2-5.3-8c-2.7-1.8-6-2.7-9.9-2.7c-2.3,0-4.5,0.3-6.4,1
			c-1.9,0.7-3.5,1.8-4.9,3.4c-1.3,1.6-2,3.6-2,6c0,1,0.2,1.9,0.5,2.7c0.3,0.8,0.7,1.5,1.1,2.1c0.5,0.6,1.1,1.2,2,1.8
			c0.9,0.6,1.7,1,2.4,1.4c0.7,0.3,1.7,0.7,3,1.2c1.3,0.4,2.4,0.8,3.2,1c0.8,0.2,2,0.5,3.6,0.9c2.8,0.8,5,1.4,6.5,1.9
			c1.5,0.5,3.5,1.2,5.9,2.3c2.4,1.1,4.2,2.2,5.4,3.5c1.2,1.2,2.4,2.8,3.3,4.9c1,2,1.5,4.3,1.5,6.9c0,2.6-0.4,5-1.3,7.1
			c-0.8,2.1-2,3.9-3.5,5.4c-1.5,1.5-3.2,2.7-5.2,3.7c-2,1-4.2,1.7-6.5,2.2C184.4,105.6,182,105.9,179.5,105.9L179.5,105.9z"/>
		<path id="path903" class="st0" d="M239,105.9c-7,0-12.8-1.6-17.5-4.7s-7.6-7.5-8.7-13.1l9.5-2.2c0.7,3.8,2.7,6.8,5.7,9
			c3.1,2.2,6.8,3.2,11.3,3.2c1.8,0,3.6-0.2,5.2-0.6c1.6-0.4,3-1,4.4-1.8c1.3-0.8,2.4-2,3.1-3.4c0.7-1.5,1.1-3.2,1.1-5.1
			c0-1.5-0.4-2.8-1.2-4c-0.7-1.2-1.4-2.2-2.2-2.9c-0.7-0.7-2.1-1.5-4.1-2.3c-2-0.8-3.4-1.4-4.3-1.6c-0.8-0.3-2.6-0.8-5.3-1.5
			c-0.3-0.1-0.5-0.2-0.6-0.2c-1.8-0.5-3.2-0.9-4.4-1.3s-2.5-0.8-4.1-1.4c-1.6-0.6-2.9-1.2-3.9-1.8c-1-0.6-2.1-1.4-3.2-2.3
			c-1.1-0.9-2-1.9-2.7-3c-0.6-1.1-1.2-2.3-1.6-3.8c-0.4-1.5-0.6-3-0.6-4.7c0-2.4,0.4-4.6,1.1-6.7c0.8-2,1.8-3.8,3.2-5.2
			c1.4-1.4,3-2.7,4.9-3.7c1.9-1,3.9-1.8,6.1-2.3c2.2-0.5,4.5-0.7,6.9-0.7c3,0,5.8,0.3,8.4,1c2.7,0.6,5.1,1.6,7.3,2.9
			c2.2,1.3,4.1,3,5.7,5.1c1.6,2.1,2.6,4.5,3.2,7.3l-9,2.3c-0.8-3.5-2.5-6.2-5.3-8c-2.7-1.8-6-2.7-9.9-2.7c-2.3,0-4.5,0.3-6.4,1
			c-1.9,0.7-3.5,1.8-4.9,3.4c-1.3,1.6-2,3.6-2,6c0,1,0.2,1.9,0.5,2.7c0.3,0.8,0.7,1.5,1.1,2.1c0.5,0.6,1.1,1.2,2,1.8
			c0.9,0.6,1.7,1,2.4,1.4c0.7,0.3,1.7,0.7,3,1.2s2.4,0.8,3.2,1c0.8,0.2,2,0.5,3.6,0.9c2.8,0.8,5,1.4,6.5,1.9
			c1.5,0.5,3.5,1.2,5.9,2.3c2.4,1.1,4.2,2.2,5.4,3.5c1.2,1.2,2.4,2.8,3.3,4.9c1,2,1.5,4.3,1.5,6.9c0,2.6-0.4,5-1.3,7.1
			c-0.8,2.1-2,3.9-3.5,5.4c-1.5,1.5-3.2,2.7-5.3,3.7c-2,1-4.2,1.7-6.5,2.2C243.9,105.6,241.5,105.9,239,105.9L239,105.9z"/>
		<path id="path905" class="st0" d="M320,38.7h9.3V105H320V75.9h-32.6V105H278V38.7h9.4v28.9H320V38.7z"/>
		<path id="path907" class="st1" d="M378.4,106.2c-5.3,0-10.1-0.9-14.4-2.7c-4.3-1.9-8-4.4-11-7.6c-3-3.2-5.3-6.9-7-11.1
			s-2.5-8.7-2.5-13.5s0.8-9.3,2.5-13.4c1.7-4.2,4-7.9,7-11.1c3.1-3.2,6.8-5.7,11-7.5c4.3-1.8,9.1-2.7,14.4-2.7
			c5.3,0,10.1,0.9,14.4,2.7c4.3,1.8,7.9,4.3,10.9,7.5c3.1,3.2,5.4,6.9,7.1,11.1c1.7,4.2,2.5,8.6,2.5,13.4s-0.8,9.3-2.5,13.5
			c-1.7,4.2-4,7.9-7.1,11.1c-3,3.2-6.7,5.7-10.9,7.6C388.5,105.3,383.7,106.2,378.4,106.2L378.4,106.2z M378.4,98.1
			c3.6,0,7-0.7,10.2-2c3.1-1.3,5.9-3.2,8.2-5.7c2.4-2.4,4.2-5.2,5.5-8.4c1.3-3.3,1.9-6.8,1.9-10.7c0-3.8-0.6-7.3-1.9-10.6
			c-1.3-3.3-3.1-6.1-5.5-8.4c-2.3-2.4-5-4.3-8.2-5.6c-3.1-1.3-6.5-2-10.2-2c-3.7,0-7.1,0.7-10.3,2c-3.1,1.3-5.9,3.1-8.2,5.6
			c-2.3,2.4-4.1,5.2-5.4,8.4c-1.3,3.2-1.9,6.7-1.9,10.6s0.6,7.4,1.9,10.7c1.3,3.2,3.1,6,5.4,8.4c2.3,2.4,5,4.3,8.2,5.7
			C371.3,97.4,374.7,98.1,378.4,98.1z"/>
		<path id="path909" class="st0" d="M448.2,105.9c-7,0-12.8-1.6-17.5-4.7s-7.6-7.5-8.7-13.1l9.5-2.2c0.8,3.8,2.7,6.8,5.7,9
			c3.1,2.2,6.8,3.2,11.3,3.2c1.8,0,3.6-0.2,5.2-0.6c1.6-0.4,3-1,4.4-1.8c1.3-0.8,2.4-2,3.1-3.4c0.7-1.5,1.1-3.2,1.1-5.1
			c0-1.5-0.4-2.8-1.2-4c-0.7-1.2-1.4-2.2-2.2-2.9c-0.7-0.7-2.1-1.5-4.1-2.3c-2-0.8-3.4-1.4-4.3-1.6c-0.8-0.3-2.6-0.8-5.3-1.5
			c-0.3-0.1-0.5-0.2-0.6-0.2c-1.8-0.5-3.2-0.9-4.4-1.3c-1.2-0.3-2.5-0.8-4.1-1.4c-1.6-0.6-2.9-1.2-3.9-1.8c-1-0.6-2.1-1.4-3.2-2.3
			c-1.1-0.9-2-1.9-2.7-3c-0.6-1.1-1.2-2.3-1.6-3.8c-0.4-1.5-0.6-3-0.6-4.7c0-2.4,0.4-4.6,1.1-6.7c0.8-2,1.8-3.8,3.2-5.2
			c1.4-1.4,3-2.7,4.9-3.7c1.9-1,3.9-1.8,6.1-2.3c2.2-0.5,4.5-0.7,6.9-0.7c3,0,5.8,0.3,8.4,1c2.7,0.6,5.1,1.6,7.3,2.9
			c2.2,1.3,4.1,3,5.7,5.1c1.6,2.1,2.6,4.5,3.2,7.3l-9,2.3c-0.8-3.5-2.5-6.2-5.3-8c-2.7-1.8-6-2.7-9.9-2.7c-2.3,0-4.5,0.3-6.4,1
			c-1.9,0.7-3.5,1.8-4.9,3.4c-1.3,1.6-2,3.6-2,6c0,1,0.2,1.9,0.5,2.7c0.3,0.8,0.7,1.5,1.1,2.1c0.5,0.6,1.1,1.2,2,1.8
			c0.9,0.6,1.7,1,2.4,1.4c0.7,0.3,1.7,0.7,3,1.2c1.3,0.4,2.4,0.8,3.2,1c0.8,0.2,2,0.5,3.6,0.9c2.8,0.8,5,1.4,6.5,1.9
			c1.5,0.5,3.5,1.2,5.9,2.3c2.4,1.1,4.2,2.2,5.4,3.5c1.2,1.2,2.4,2.8,3.3,4.9c1,2,1.5,4.3,1.5,6.9c0,2.6-0.4,5-1.3,7.1
			c-0.8,2.1-2,3.9-3.5,5.4c-1.5,1.5-3.2,2.7-5.2,3.7c-2,1-4.2,1.7-6.5,2.2C453.2,105.6,450.7,105.9,448.2,105.9L448.2,105.9z"/>
		<path id="path911" class="st0" d="M521.9,38.7v8.4h-16.8V105h-9.2V47.1h-16.8v-8.4H521.9z"/>
	</g>
	<g id="text1181">
		<path id="path914" class="st1" d="M29.9,131.4h2.7v19.3h-2.9l-10.1-15.3v15.3h-2.7v-19.3h2.9l10.1,15.2V131.4z"/>
		<path id="path916" class="st1" d="M46.8,150.9c-1.8,0-3.5-0.4-4.9-1.2c-1.4-0.8-2.6-1.9-3.5-3.5c-0.8-1.5-1.3-3.3-1.3-5.3
			c0-1.5,0.2-2.9,0.7-4.1c0.5-1.3,1.2-2.3,2-3.1c0.9-0.8,1.9-1.5,3.1-1.9c1.2-0.5,2.5-0.7,3.8-0.7c1.4,0,2.6,0.2,3.8,0.7
			c1.2,0.5,2.2,1.1,3.1,1.9c0.9,0.8,1.5,1.9,2,3.1c0.5,1.2,0.8,2.6,0.8,4.1c0,1.5-0.3,2.9-0.8,4.1c-0.5,1.2-1.2,2.3-2,3.1
			c-0.9,0.8-1.9,1.5-3.1,2C49.4,150.7,48.2,150.9,46.8,150.9L46.8,150.9z M46.8,148.4c1,0,1.9-0.2,2.7-0.5c0.8-0.3,1.6-0.8,2.2-1.4
			c0.6-0.6,1.1-1.4,1.5-2.3c0.4-0.9,0.5-2,0.5-3.1c0-1.1-0.2-2.2-0.5-3.1c-0.4-0.9-0.8-1.7-1.5-2.3c-0.6-0.6-1.4-1.1-2.2-1.4
			c-0.8-0.3-1.7-0.5-2.7-0.5c-1,0-1.9,0.2-2.7,0.5c-0.8,0.3-1.6,0.8-2.2,1.4c-0.6,0.6-1.1,1.4-1.5,2.3c-0.4,0.9-0.5,2-0.5,3.1
			c0,1.1,0.2,2.2,0.5,3.1c0.4,0.9,0.9,1.7,1.5,2.3c0.6,0.6,1.4,1.1,2.2,1.4C44.9,148.2,45.9,148.4,46.8,148.4z"/>
		<path id="path918" class="st1" d="M70.3,131.4v2.4h-4.9v16.9h-2.7v-16.9h-4.9v-2.4H70.3z"/>
		<path id="path920" class="st1" d="M73.3,144.5v-2.2h9.8v2.2H73.3z"/>
		<path id="path922" class="st1" d="M98.9,133.8h-7.8v6h6.8v2.4h-6.8v8.4h-2.8v-19.3h10.6V133.8z"/>
		<path id="path924" class="st1" d="M111.2,150.9c-1.8,0-3.5-0.4-4.9-1.2c-1.4-0.8-2.6-1.9-3.5-3.5c-0.8-1.5-1.3-3.3-1.3-5.3
			c0-1.5,0.2-2.9,0.7-4.1c0.5-1.3,1.2-2.3,2-3.1c0.9-0.8,1.9-1.5,3.1-1.9c1.2-0.5,2.5-0.7,3.8-0.7c1.4,0,2.6,0.2,3.8,0.7
			c1.2,0.5,2.2,1.1,3.1,1.9c0.9,0.8,1.5,1.9,2,3.1c0.5,1.2,0.8,2.6,0.8,4.1c0,1.5-0.3,2.9-0.8,4.1c-0.5,1.2-1.2,2.3-2,3.1
			c-0.9,0.8-1.9,1.5-3.1,2C113.9,150.7,112.6,150.9,111.2,150.9L111.2,150.9z M111.2,148.4c1,0,1.9-0.2,2.7-0.5
			c0.8-0.3,1.6-0.8,2.2-1.4c0.6-0.6,1.1-1.4,1.5-2.3c0.4-0.9,0.5-2,0.5-3.1c0-1.1-0.2-2.2-0.5-3.1c-0.4-0.9-0.8-1.7-1.5-2.3
			c-0.6-0.6-1.4-1.1-2.2-1.4c-0.8-0.3-1.7-0.5-2.7-0.5c-1,0-1.9,0.2-2.7,0.5c-0.8,0.3-1.6,0.8-2.2,1.4c-0.6,0.6-1.1,1.4-1.5,2.3
			c-0.4,0.9-0.5,2-0.5,3.1c0,1.1,0.2,2.2,0.5,3.1c0.4,0.9,0.9,1.7,1.5,2.3c0.6,0.6,1.4,1.1,2.2,1.4
			C109.4,148.2,110.3,148.4,111.2,148.4z"/>
		<path id="path926" class="st1" d="M135.8,150.7l-5-8.7h-2.7v8.7h-2.7v-19.3h6.5c1,0,1.9,0.1,2.6,0.4c0.8,0.3,1.4,0.7,1.8,1.2
			c0.5,0.5,0.8,1.1,1.1,1.7c0.2,0.7,0.4,1.4,0.4,2.1c0,1.3-0.4,2.5-1.1,3.3c-0.7,0.9-1.8,1.4-3.1,1.7l5.4,8.8L135.8,150.7z
			 M128.1,133.7v6.2h3.4c1.2,0,2.1-0.3,2.7-0.8c0.6-0.6,0.9-1.3,0.9-2.3c0-0.9-0.3-1.7-0.9-2.3c-0.6-0.6-1.5-0.8-2.7-0.8H128.1z"/>
		<path id="path928" class="st1" d="M142.3,144.5v-2.2h9.8v2.2H142.3z"/>
		<path id="path930" class="st1" d="M164.7,131.4c1.7,0,3.1,0.6,4.2,1.7c1.1,1.1,1.6,2.6,1.6,4.3c0,1.7-0.5,3.1-1.6,4.2
			c-1.1,1.1-2.5,1.7-4.2,1.7H160v7.4h-2.7v-19.3H164.7z M164.3,140.9c1.1,0,2-0.3,2.6-1c0.6-0.7,0.9-1.5,0.9-2.6
			c0-1.1-0.3-1.9-0.9-2.6c-0.6-0.7-1.5-1-2.6-1H160v7.2H164.3z"/>
		<path id="path932" class="st1" d="M185.1,150.7l-5-8.7h-2.7v8.7h-2.7v-19.3h6.5c1,0,1.9,0.1,2.6,0.4c0.8,0.3,1.4,0.7,1.8,1.2
			c0.5,0.5,0.8,1.1,1.1,1.7s0.4,1.4,0.4,2.1c0,1.3-0.4,2.5-1.1,3.3c-0.7,0.9-1.8,1.4-3.1,1.7l5.4,8.8L185.1,150.7z M177.4,133.7v6.2
			h3.4c1.2,0,2.1-0.3,2.7-0.8c0.6-0.6,0.9-1.3,0.9-2.3c0-0.9-0.3-1.7-0.9-2.3s-1.5-0.8-2.7-0.8H177.4z"/>
		<path id="path934" class="st1" d="M200.1,150.9c-1.8,0-3.5-0.4-4.9-1.2c-1.4-0.8-2.6-1.9-3.5-3.5c-0.8-1.5-1.3-3.3-1.3-5.3
			c0-1.5,0.2-2.9,0.7-4.1c0.5-1.3,1.2-2.3,2-3.1c0.9-0.8,1.9-1.5,3.1-1.9c1.2-0.5,2.5-0.7,3.8-0.7c1.4,0,2.6,0.2,3.8,0.7
			c1.2,0.5,2.2,1.1,3.1,1.9c0.9,0.8,1.5,1.9,2,3.1c0.5,1.2,0.8,2.6,0.8,4.1c0,1.5-0.3,2.9-0.8,4.1c-0.5,1.2-1.2,2.3-2,3.1
			c-0.9,0.8-1.9,1.5-3.1,2C202.7,150.7,201.4,150.9,200.1,150.9L200.1,150.9z M200.1,148.4c1,0,1.9-0.2,2.7-0.5
			c0.8-0.3,1.6-0.8,2.2-1.4c0.6-0.6,1.1-1.4,1.5-2.3c0.4-0.9,0.5-2,0.5-3.1c0-1.1-0.2-2.2-0.5-3.1c-0.4-0.9-0.8-1.7-1.5-2.3
			c-0.6-0.6-1.4-1.1-2.2-1.4c-0.8-0.3-1.7-0.5-2.7-0.5c-1,0-1.9,0.2-2.7,0.5c-0.8,0.3-1.6,0.8-2.2,1.4c-0.6,0.6-1.1,1.4-1.5,2.3
			c-0.4,0.9-0.5,2-0.5,3.1c0,1.1,0.2,2.2,0.5,3.1c0.4,0.9,0.9,1.7,1.5,2.3c0.6,0.6,1.4,1.1,2.2,1.4
			C198.2,148.2,199.1,148.4,200.1,148.4L200.1,148.4z"/>
		<path id="path936" class="st1" d="M224.9,133.8H217v6h6.8v2.4H217v8.4h-2.8v-19.3h10.6L224.9,133.8z"/>
		<path id="path938" class="st1" d="M228.9,150.7v-19.3h2.7v19.3H228.9z"/>
		<path id="path940" class="st1" d="M247.7,131.4v2.4h-4.9v16.9h-2.7v-16.9h-4.9v-2.4H247.7z"/>
		<path id="path942" class="st1" d="M270.9,131.4h2.7v19.3h-2.7v-8.5h-9.5v8.5h-2.7v-19.3h2.7v8.4h9.5V131.4z"/>
		<path id="path944" class="st1" d="M287.8,150.9c-1.8,0-3.5-0.4-4.9-1.2c-1.4-0.8-2.6-1.9-3.5-3.5c-0.8-1.5-1.3-3.3-1.3-5.3
			c0-1.5,0.2-2.9,0.7-4.1c0.5-1.3,1.2-2.3,2-3.1c0.9-0.8,1.9-1.5,3.1-1.9c1.2-0.5,2.5-0.7,3.8-0.7c1.4,0,2.6,0.2,3.8,0.7
			c1.2,0.5,2.2,1.1,3.1,1.9c0.9,0.8,1.5,1.9,2,3.1c0.5,1.2,0.8,2.6,0.8,4.1c0,1.5-0.3,2.9-0.8,4.1c-0.5,1.2-1.2,2.3-2,3.1
			c-0.9,0.8-1.9,1.5-3.1,2C290.4,150.7,289.2,150.9,287.8,150.9L287.8,150.9z M287.8,148.4c1,0,1.9-0.2,2.7-0.5
			c0.8-0.3,1.6-0.8,2.2-1.4c0.6-0.6,1.1-1.4,1.5-2.3c0.4-0.9,0.5-2,0.5-3.1c0-1.1-0.2-2.2-0.5-3.1c-0.4-0.9-0.8-1.7-1.5-2.3
			c-0.6-0.6-1.4-1.1-2.2-1.4c-0.8-0.3-1.7-0.5-2.7-0.5c-1,0-1.9,0.2-2.7,0.5c-0.8,0.3-1.6,0.8-2.2,1.4c-0.6,0.6-1.1,1.4-1.5,2.3
			c-0.4,0.9-0.5,2-0.5,3.1c0,1.1,0.2,2.2,0.5,3.1c0.4,0.9,0.9,1.7,1.5,2.3c0.6,0.6,1.4,1.1,2.2,1.4
			C285.9,148.2,286.8,148.4,287.8,148.4z"/>
		<path id="path946" class="st1" d="M307.7,150.9c-2,0-3.7-0.5-5.1-1.4c-1.4-0.9-2.2-2.2-2.5-3.8l2.8-0.7c0.2,1.1,0.8,2,1.7,2.6
			c0.9,0.6,2,0.9,3.3,0.9c0.5,0,1-0.1,1.5-0.2c0.5-0.1,0.9-0.3,1.3-0.5c0.4-0.2,0.7-0.6,0.9-1c0.2-0.4,0.3-0.9,0.3-1.5
			c0-0.4-0.1-0.8-0.3-1.2c-0.2-0.4-0.4-0.6-0.6-0.8c-0.2-0.2-0.6-0.4-1.2-0.7c-0.6-0.2-1-0.4-1.3-0.5c-0.2-0.1-0.8-0.2-1.5-0.4
			c-0.1,0-0.1,0-0.2-0.1c-0.5-0.1-0.9-0.3-1.3-0.4c-0.3-0.1-0.7-0.2-1.2-0.4c-0.5-0.2-0.8-0.4-1.1-0.5c-0.3-0.2-0.6-0.4-0.9-0.7
			c-0.3-0.3-0.6-0.6-0.8-0.9c-0.2-0.3-0.3-0.7-0.5-1.1c-0.1-0.4-0.2-0.9-0.2-1.4c0-0.7,0.1-1.3,0.3-1.9c0.2-0.6,0.5-1.1,0.9-1.5
			c0.4-0.4,0.9-0.8,1.4-1.1c0.5-0.3,1.1-0.5,1.8-0.7c0.6-0.1,1.3-0.2,2-0.2c0.9,0,1.7,0.1,2.5,0.3c0.8,0.2,1.5,0.5,2.1,0.8
			c0.6,0.4,1.2,0.9,1.7,1.5c0.5,0.6,0.8,1.3,0.9,2.1l-2.6,0.7c-0.2-1-0.7-1.8-1.5-2.3c-0.8-0.5-1.8-0.8-2.9-0.8
			c-0.7,0-1.3,0.1-1.9,0.3c-0.6,0.2-1,0.5-1.4,1c-0.4,0.5-0.6,1.1-0.6,1.8c0,0.3,0,0.5,0.1,0.8c0.1,0.2,0.2,0.4,0.3,0.6
			c0.1,0.2,0.3,0.3,0.6,0.5c0.3,0.2,0.5,0.3,0.7,0.4c0.2,0.1,0.5,0.2,0.9,0.3c0.4,0.1,0.7,0.2,0.9,0.3c0.2,0.1,0.6,0.2,1,0.3
			c0.8,0.2,1.5,0.4,1.9,0.5c0.4,0.1,1,0.4,1.7,0.7c0.7,0.3,1.2,0.7,1.6,1c0.4,0.4,0.7,0.8,1,1.4c0.3,0.6,0.4,1.3,0.4,2
			c0,0.8-0.1,1.4-0.4,2.1c-0.2,0.6-0.6,1.1-1,1.6c-0.4,0.4-0.9,0.8-1.5,1.1c-0.6,0.3-1.2,0.5-1.9,0.6
			C309.2,150.9,308.5,150.9,307.7,150.9L307.7,150.9z"/>
		<path id="path948" class="st1" d="M329.2,131.4v2.4h-4.9v16.9h-2.7v-16.9h-4.9v-2.4H329.2z"/>
		<path id="path950" class="st1" d="M332.9,150.7v-19.3h2.7v19.3H332.9z"/>
		<path id="path952" class="st1" d="M354.5,131.4h2.7v19.3h-2.9l-10.1-15.3v15.3h-2.7v-19.3h2.9l10.1,15.2V131.4z"/>
		<path id="path954" class="st1" d="M371.3,150.9c-1.3,0-2.6-0.2-3.8-0.7c-1.2-0.5-2.2-1.1-3-1.9c-0.9-0.8-1.5-1.9-2-3.1
			c-0.5-1.2-0.7-2.6-0.7-4.1c0-2,0.4-3.8,1.3-5.3c0.9-1.5,2-2.7,3.5-3.5c1.5-0.8,3.1-1.2,4.9-1.2c1.8,0,3.4,0.4,4.9,1.2
			c1.4,0.8,2.6,1.9,3.4,3.3l-2.4,1.3c-0.6-1.1-1.4-1.9-2.4-2.5c-1-0.6-2.2-0.8-3.4-0.8c-1,0-1.9,0.2-2.7,0.5
			c-0.8,0.3-1.6,0.8-2.2,1.4c-0.6,0.6-1.1,1.4-1.5,2.3c-0.4,0.9-0.5,2-0.5,3.2c0,2.3,0.7,4.1,2,5.5c1.3,1.3,3,2,5.1,2
			c1.7,0,3.1-0.5,4.2-1.4c1.1-0.9,1.8-2.3,2-4.1h-6.3v-2.3h8.9v9.9h-2.2v-3.5c-0.6,1.2-1.6,2.1-2.7,2.8
			C374.3,150.6,372.9,150.9,371.3,150.9z"/>
		<path id="path956" class="st1" d="M400,131.4c1.7,0,3.1,0.6,4.2,1.7s1.6,2.6,1.6,4.3c0,1.7-0.5,3.1-1.6,4.2
			c-1.1,1.1-2.5,1.7-4.2,1.7h-4.7v7.4h-2.7v-19.3H400z M399.6,140.9c1.1,0,2-0.3,2.6-1c0.6-0.7,0.9-1.5,0.9-2.6
			c0-1.1-0.3-1.9-0.9-2.6c-0.6-0.7-1.5-1-2.6-1h-4.3v7.2H399.6z"/>
		<path id="path958" class="st1" d="M420.4,150.7l-5-8.7h-2.7v8.7H410v-19.3h6.5c1,0,1.9,0.1,2.6,0.4c0.8,0.3,1.4,0.7,1.8,1.2
			c0.5,0.5,0.8,1.1,1.1,1.7c0.2,0.7,0.4,1.4,0.4,2.1c0,1.3-0.4,2.5-1.1,3.3c-0.7,0.9-1.8,1.4-3.1,1.7l5.4,8.8L420.4,150.7z
			 M412.7,133.7v6.2h3.4c1.2,0,2.1-0.3,2.7-0.8c0.6-0.6,0.9-1.3,0.9-2.3c0-0.9-0.3-1.7-0.9-2.3c-0.6-0.6-1.5-0.8-2.7-0.8H412.7z"/>
		<path id="path960" class="st1" d="M435.4,150.9c-1.8,0-3.5-0.4-4.9-1.2c-1.4-0.8-2.6-1.9-3.5-3.5c-0.8-1.5-1.3-3.3-1.3-5.3
			c0-1.5,0.2-2.9,0.7-4.1c0.5-1.3,1.2-2.3,2-3.1c0.9-0.8,1.9-1.5,3.1-1.9c1.2-0.5,2.5-0.7,3.8-0.7c1.4,0,2.6,0.2,3.8,0.7
			c1.2,0.5,2.2,1.1,3.1,1.9c0.9,0.8,1.5,1.9,2,3.1c0.5,1.2,0.8,2.6,0.8,4.1c0,1.5-0.3,2.9-0.8,4.1c-0.5,1.2-1.2,2.3-2,3.1
			c-0.9,0.8-1.9,1.5-3.1,2C438,150.7,436.7,150.9,435.4,150.9L435.4,150.9z M435.4,148.4c1,0,1.9-0.2,2.7-0.5
			c0.8-0.3,1.6-0.8,2.2-1.4c0.6-0.6,1.1-1.4,1.5-2.3c0.4-0.9,0.5-2,0.5-3.1c0-1.1-0.2-2.2-0.5-3.1c-0.4-0.9-0.8-1.7-1.5-2.3
			c-0.6-0.6-1.4-1.1-2.2-1.4c-0.8-0.3-1.7-0.5-2.7-0.5c-1,0-1.9,0.2-2.7,0.5c-0.8,0.3-1.6,0.8-2.2,1.4c-0.6,0.6-1.1,1.4-1.5,2.3
			c-0.4,0.9-0.5,2-0.5,3.1c0,1.1,0.2,2.2,0.5,3.1c0.4,0.9,0.9,1.7,1.5,2.3c0.6,0.6,1.4,1.1,2.2,1.4
			C433.5,148.2,434.4,148.4,435.4,148.4z"/>
		<path id="path962" class="st1" d="M460.5,131.4h2.9l-7.1,19.3h-2.8l-7.1-19.3h2.9l5.7,16L460.5,131.4z"/>
		<path id="path964" class="st1" d="M467.1,150.7v-19.3h2.7v19.3H467.1z"/>
		<path id="path966" class="st1" d="M475.7,150.7v-19.3h6.4c1.5,0,2.8,0.2,3.9,0.7c1.1,0.5,2.1,1.1,2.8,2c0.7,0.9,1.3,1.9,1.7,3
			c0.4,1.2,0.6,2.5,0.6,3.9c0,1.9-0.3,3.6-1,5c-0.7,1.4-1.7,2.6-3,3.4c-1.4,0.8-3,1.2-4.9,1.2L475.7,150.7z M478.4,148.2h3.5
			c2.1,0,3.6-0.6,4.7-1.9c1-1.3,1.6-3,1.6-5.3c0-2.3-0.5-4-1.6-5.3c-1-1.3-2.6-1.9-4.7-1.9h-3.5V148.2z"/>
		<path id="path968" class="st1" d="M506.1,133.8h-7.7v6h6.8v2.4h-6.8v6h7.7v2.5h-10.5v-19.3h10.5V133.8z"/>
		<path id="path970" class="st1" d="M521.1,150.7l-5-8.7h-2.7v8.7h-2.7v-19.3h6.5c1,0,1.9,0.1,2.6,0.4c0.8,0.3,1.4,0.7,1.8,1.2
			c0.5,0.5,0.8,1.1,1.1,1.7c0.2,0.7,0.4,1.4,0.4,2.1c0,1.3-0.4,2.5-1.1,3.3c-0.7,0.9-1.8,1.4-3.1,1.7l5.4,8.8L521.1,150.7z
			 M513.4,133.7v6.2h3.4c1.2,0,2.1-0.3,2.7-0.8c0.6-0.6,0.9-1.3,0.9-2.3c0-0.9-0.3-1.7-0.9-2.3c-0.6-0.6-1.5-0.8-2.7-0.8H513.4z"/>
	</g>
</g>
</svg>
