<?xml version="1.0" encoding="utf-8"?>
<!-- Generator: Adobe Illustrator 24.0.2, SVG Export Plug-In . SVG Version: 6.00 Build 0)  -->
<svg version="1.1" id="Layer_1" xmlns="http://www.w3.org/2000/svg" xmlns:xlink="http://www.w3.org/1999/xlink" x="0px" y="0px"
	 viewBox="0 0 50 50" style="enable-background:new 0 0 50 50;" xml:space="preserve">
<style type="text/css">
	.st0{fill:#50285a;}
</style>
<path class="st0" d="M49.9,28.2c0.1-0.4,0.1-0.9,0.1-1.3l-6.7,6.7L34.8,25l8.6-8.6l6.7,6.7c0-0.4-0.1-0.9-0.1-1.3l-5.9-5.9l3-3
	c-0.1-0.3-0.3-0.5-0.4-0.7l-3.2,3.2l-8.6-8.6l3.2-3.2c-0.2-0.1-0.5-0.3-0.7-0.4l-3,3l-5.9-5.9C27.8,0.1,27.4,0,26.9,0l6.7,6.7
	L25,15.2l-8.6-8.6L23.1,0c-0.4,0-0.9,0.1-1.3,0.1l-5.9,5.9l-3-3c-0.3,0.1-0.5,0.3-0.7,0.4l3.2,3.2l-8.6,8.6l-3.2-3.2
	c-0.1,0.2-0.3,0.5-0.4,0.7l3,3l-5.9,5.9C0.1,22.2,0,22.6,0,23.1l6.7-6.7l8.6,8.6l-8.6,8.6L0,26.9c0,0.4,0.1,0.9,0.1,1.3l5.9,5.9
	l-3,3c0.1,0.3,0.3,0.5,0.4,0.7l3.2-3.2l8.6,8.6l-3.2,3.2c0.2,0.1,0.5,0.3,0.7,0.4l3-3l5.9,5.9c0.4,0.1,0.9,0.1,1.3,0.1l-6.7-6.7
	l8.6-8.6l8.6,8.6L26.9,50c0.4,0,0.9-0.1,1.3-0.1l5.9-5.9l3,3c0.3-0.1,0.5-0.3,0.7-0.4l-3.2-3.2l8.6-8.6l3.2,3.2
	c0.1-0.2,0.3-0.5,0.4-0.7l-3-3L49.9,28.2z M34.2,7.3l8.6,8.6l-8.6,8.6l-8.6-8.6L34.2,7.3z M33.6,25L25,33.6L16.4,25l8.6-8.6L33.6,25
	z M7.3,15.8l8.6-8.6l8.6,8.6l-8.6,8.6L7.3,15.8z M15.8,42.7l-8.6-8.6l8.6-8.6l8.6,8.6L15.8,42.7z M34.2,42.7l-8.6-8.6l8.6-8.6
	l8.6,8.6L34.2,42.7z"/>
</svg>
