<?xml version="1.0" encoding="utf-8"?>
<!-- Generator: Adobe Illustrator 24.0.2, SVG Export Plug-In . SVG Version: 6.00 Build 0)  -->
<svg version="1.1" id="Layer_1" xmlns="http://www.w3.org/2000/svg" xmlns:xlink="http://www.w3.org/1999/xlink" x="0px" y="0px"
	 viewBox="0 0 486 418" style="enable-background:new 0 0 486 418;" xml:space="preserve">
<style type="text/css">
	.st0{fill:url(#SVGID_1_);}
	.st1{opacity:0.4;fill:none;stroke:#5FB096;enable-background:new    ;}
	.st2{opacity:0.15;fill:none;stroke:#5FB096;enable-background:new    ;}
	.st3{fill:#FFFFFF;}
</style>
<linearGradient id="SVGID_1_" gradientUnits="userSpaceOnUse" x1="276.228" y1="156.6489" x2="186.221" y2="200.9099" gradientTransform="matrix(1 0 0 -1 0 417.8898)">
	<stop  offset="0" style="stop-color:#27A59B"/>
	<stop  offset="1" style="stop-color:#4BCB8F"/>
</linearGradient>
<path class="st0" d="M231,190L231,190c27.1,0,49,21.9,49,49l0,0c0,27.1-21.9,49-49,49l0,0c-27.1,0-49-21.9-49-49l0,0
	C182,211.9,203.9,190,231,190z"/>
<circle class="st1" cx="231" cy="239" r="68.5"/>
<circle class="st2" cx="231" cy="239" r="85.5"/>
<path class="st3" d="M266,243.5c0.1-0.6,0.1-1.2,0.2-1.8l-9.4,9.4L244.7,239l12.1-12.1l9.4,9.4c0-0.6-0.1-1.2-0.2-1.8l-8.4-8.4
	l4.2-4.2c-0.2-0.4-0.4-0.7-0.6-1.1l-4.5,4.5l-12.1-12.1l4.5-4.5c-0.3-0.2-0.7-0.4-1.1-0.6l-4.2,4.2l-8.4-8.4
	c-0.6-0.1-1.2-0.1-1.8-0.2l9.4,9.4L231,225.3l-12.1-12.1l9.4-9.4c-0.6,0-1.2,0.1-1.8,0.2l-8.4,8.4l-4.2-4.2
	c-0.4,0.2-0.7,0.4-1.1,0.6l4.5,4.5l-12.1,12.1l-4.5-4.5c-0.2,0.3-0.4,0.7-0.6,1.1l4.2,4.2l-8.4,8.4c-0.1,0.6-0.1,1.2-0.2,1.8
	l9.4-9.4l12.1,12.1l-12.1,12.1l-9.4-9.4c0,0.6,0.1,1.2,0.2,1.8l8.4,8.4l-4.2,4.2c0.2,0.4,0.4,0.7,0.6,1.1l4.5-4.5l12.1,12.1
	l-4.5,4.5c0.3,0.2,0.7,0.4,1.1,0.6l4.2-4.2l8.4,8.4c0.6,0.1,1.2,0.1,1.8,0.2l-9.4-9.4l12.1-12.1l12.1,12.1l-9.4,9.4
	c0.6,0,1.2-0.1,1.8-0.2l8.4-8.4l4.2,4.2c0.4-0.2,0.7-0.4,1.1-0.6l-4.5-4.5l12.1-12.1l4.5,4.5c0.2-0.3,0.4-0.7,0.6-1.1l-4.2-4.2
	L266,243.5z M243.9,214l12.1,12.1l-12.1,12.1l-12.1-12.1L243.9,214z M243.1,239L231,251.1L218.9,239l12.1-12.1L243.1,239z
	 M206,226.1l12.1-12.1l12.1,12.1l-12.1,12.1L206,226.1z M218.1,264L206,251.9l12.1-12.1l12.1,12.1L218.1,264z M243.9,264l-12.1-12.1
	l12.1-12.1l12.1,12.1L243.9,264z"/>
</svg>
