<?xml version="1.0" encoding="utf-8"?>
<!-- Generator: Adobe Illustrator 24.0.2, SVG Export Plug-In . SVG Version: 6.00 Build 0)  -->
<svg version="1.1" id="Layer_1" xmlns="http://www.w3.org/2000/svg" xmlns:xlink="http://www.w3.org/1999/xlink" x="0px" y="0px"
	 viewBox="0 0 22 22" style="enable-background:new 0 0 22 22;" xml:space="preserve">
<path d="M16.5,2H6C3.9,2,2.3,3.7,2.3,5.8v10.5C2.3,18.3,3.9,20,6,20h10.5c2.1,0,3.7-1.7,3.7-3.7V5.8C20.2,3.7,18.5,2,16.5,2z
	 M8.2,16.2H6V8h2.2V16.2z M7.1,7.1c-0.7,0-1.3-0.6-1.3-1.3s0.6-1.3,1.3-1.3S8.4,5,8.4,5.7S7.8,7.1,7.1,7.1z M17.2,16.2H15V12
	c0-2.5-3-2.3-3,0v4.2H9.7V8H12v1.3c1-1.9,5.2-2.1,5.2,1.9V16.2z"/>
</svg>
